# xmcd
#
# Track frame offsets: 
#        150
#        11320
#        21115
#        32137
#        42846
#        51875
#        68855
#        78085
#        87134
#        97285
#        105489
#        118179
#        129915
#        141020
#
# Disc length: 2042 seconds
#
# Revision: 0
# Processed by: cddbd v1.5.2PL0 Copyright (c) Steve Scherf et al.
# Submitted via: ExactAudioCopy v0.99pb4
#
DISCID=ad07f80e
DTITLE=Lynette Morgan and the Backwater Valley Boys - Road Signs and Middl
DTITLE=e Lines
DYEAR=2002
DGENRE=Country
TTITLE0=Road Signs and Middle Lines
TTITLE1=Hello Baby
TTITLE2=How Long
TTITLE3=I Wonder If I Can Lose The Blues
TTITLE4=South
TTITLE5=Poor Boy
TTITLE6=Don't You Lie To Me
TTITLE7=Hungry For Love
TTITLE8=Woah Boy
TTITLE9=Love and Leave You
TTITLE10=I Love You So Much
TTITLE11=Texas Blues
TTITLE12=Peach Pickin'
TTITLE13=Blackwater Rag
EXTD=
EXTT0=
EXTT1=
EXTT2=
EXTT3=
EXTT4=
EXTT5=
EXTT6=
EXTT7=
EXTT8=
EXTT9=
EXTT10=
EXTT11=
EXTT12=
EXTT13=
PLAYORDER=
